<?xml version="1.0" encoding="utf-8"?>
<!-- Generator: Adobe Illustrator 26.3.1, SVG Export Plug-In . SVG Version: 6.00 Build 0)  -->
<svg version="1.1" id="Layer_1" xmlns="http://www.w3.org/2000/svg" xmlns:xlink="http://www.w3.org/1999/xlink" x="0px" y="0px"
	 viewBox="0 0 20 20" style="enable-background:new 0 0 20 20;" xml:space="preserve">
<style type="text/css">
	.st0{fill:#72C187;}
</style>
<path class="st0" d="M2.5,2.1v10.8c0,0.3,0.3,0.6,0.6,0.6h2.8c0.3,0,0.6,0.3,0.6,0.6v2.8c0,0.3,0.3,0.6,0.6,0.6h10.8
	c0.3,0,0.6-0.3,0.6-0.6V2.1c0-0.3-0.3-0.6-0.6-0.6H3.1C2.8,1.5,2.5,1.7,2.5,2.1z"/>
<path class="st0" d="M2.1,14.5h2.8c0.3,0,0.6,0.3,0.6,0.6v2.8c0,0.3-0.3,0.6-0.6,0.6H2.1c-0.3,0-0.6-0.3-0.6-0.6v-2.8
	C1.5,14.8,1.8,14.5,2.1,14.5z"/>
</svg>
